<mxfile host="app.diagrams.net" modified="2024-06-29T09:40:41.125Z" agent="Mozilla/5.0 (Windows NT 10.0; Win64; x64) AppleWebKit/537.36 (KHTML, like Gecko) Chrome/126.0.0.0 Safari/537.36" etag="C41DrDHYboNMAIQuhICE" version="24.6.4" type="device">
  <diagram name="Page-1" id="aD_cKOuaNYxG7YaCkV-d">
    <mxGraphModel dx="1050" dy="522" grid="1" gridSize="10" guides="1" tooltips="1" connect="1" arrows="1" fold="1" page="1" pageScale="1" pageWidth="827" pageHeight="1169" math="0" shadow="0">
      <root>
        <mxCell id="0" />
        <mxCell id="1" parent="0" />
        <mxCell id="DbRBNetAcuYP5N-v9lAM-11" value="" style="edgeStyle=orthogonalEdgeStyle;rounded=0;orthogonalLoop=1;jettySize=auto;html=1;fillColor=#e1d5e7;strokeColor=#9673a6;" edge="1" parent="1" source="DbRBNetAcuYP5N-v9lAM-1" target="DbRBNetAcuYP5N-v9lAM-2">
          <mxGeometry relative="1" as="geometry" />
        </mxCell>
        <mxCell id="DbRBNetAcuYP5N-v9lAM-1" value="Face Not Recognize" style="rounded=0;whiteSpace=wrap;html=1;fillColor=#e1d5e7;strokeColor=#9673a6;" vertex="1" parent="1">
          <mxGeometry x="130" y="170" width="120" height="60" as="geometry" />
        </mxCell>
        <mxCell id="DbRBNetAcuYP5N-v9lAM-12" value="" style="edgeStyle=orthogonalEdgeStyle;rounded=0;orthogonalLoop=1;jettySize=auto;html=1;fillColor=#e1d5e7;strokeColor=#9673a6;" edge="1" parent="1" source="DbRBNetAcuYP5N-v9lAM-2" target="DbRBNetAcuYP5N-v9lAM-3">
          <mxGeometry relative="1" as="geometry" />
        </mxCell>
        <mxCell id="DbRBNetAcuYP5N-v9lAM-2" value="QR Code Generation Process (Device Information)" style="rounded=0;whiteSpace=wrap;html=1;fillColor=#e1d5e7;strokeColor=#9673a6;" vertex="1" parent="1">
          <mxGeometry x="300" y="170" width="120" height="60" as="geometry" />
        </mxCell>
        <mxCell id="DbRBNetAcuYP5N-v9lAM-13" value="" style="edgeStyle=orthogonalEdgeStyle;rounded=0;orthogonalLoop=1;jettySize=auto;html=1;fillColor=#e1d5e7;strokeColor=#9673a6;" edge="1" parent="1" source="DbRBNetAcuYP5N-v9lAM-3" target="DbRBNetAcuYP5N-v9lAM-4">
          <mxGeometry relative="1" as="geometry" />
        </mxCell>
        <mxCell id="DbRBNetAcuYP5N-v9lAM-3" value="QR Scaning By apps&lt;br&gt;&amp;amp; CMD sent to server&amp;nbsp;" style="rounded=0;whiteSpace=wrap;html=1;fillColor=#e1d5e7;strokeColor=#9673a6;" vertex="1" parent="1">
          <mxGeometry x="470" y="170" width="120" height="60" as="geometry" />
        </mxCell>
        <mxCell id="DbRBNetAcuYP5N-v9lAM-14" value="" style="edgeStyle=orthogonalEdgeStyle;rounded=0;orthogonalLoop=1;jettySize=auto;html=1;fillColor=#e1d5e7;strokeColor=#9673a6;" edge="1" parent="1" source="DbRBNetAcuYP5N-v9lAM-4" target="DbRBNetAcuYP5N-v9lAM-5">
          <mxGeometry relative="1" as="geometry" />
        </mxCell>
        <mxCell id="DbRBNetAcuYP5N-v9lAM-4" value="CMD received by&amp;nbsp;&lt;br&gt;FR Device" style="rounded=0;whiteSpace=wrap;html=1;fillColor=#e1d5e7;strokeColor=#9673a6;" vertex="1" parent="1">
          <mxGeometry x="640" y="170" width="120" height="60" as="geometry" />
        </mxCell>
        <mxCell id="DbRBNetAcuYP5N-v9lAM-15" value="" style="edgeStyle=orthogonalEdgeStyle;rounded=0;orthogonalLoop=1;jettySize=auto;html=1;fillColor=#e1d5e7;strokeColor=#9673a6;" edge="1" parent="1" source="DbRBNetAcuYP5N-v9lAM-5" target="DbRBNetAcuYP5N-v9lAM-6">
          <mxGeometry relative="1" as="geometry" />
        </mxCell>
        <mxCell id="DbRBNetAcuYP5N-v9lAM-5" value="Dialogue Box&amp;nbsp;&lt;br&gt;Pop upo" style="rounded=0;whiteSpace=wrap;html=1;fillColor=#e1d5e7;strokeColor=#9673a6;" vertex="1" parent="1">
          <mxGeometry x="640" y="270" width="120" height="60" as="geometry" />
        </mxCell>
        <mxCell id="DbRBNetAcuYP5N-v9lAM-16" value="" style="edgeStyle=orthogonalEdgeStyle;rounded=0;orthogonalLoop=1;jettySize=auto;html=1;fillColor=#e1d5e7;strokeColor=#9673a6;" edge="1" parent="1" source="DbRBNetAcuYP5N-v9lAM-6" target="DbRBNetAcuYP5N-v9lAM-7">
          <mxGeometry relative="1" as="geometry" />
        </mxCell>
        <mxCell id="DbRBNetAcuYP5N-v9lAM-23" style="edgeStyle=orthogonalEdgeStyle;rounded=0;orthogonalLoop=1;jettySize=auto;html=1;entryX=0;entryY=0.5;entryDx=0;entryDy=0;strokeColor=#9673a6;fillColor=#e1d5e7;" edge="1" parent="1" source="DbRBNetAcuYP5N-v9lAM-6" target="DbRBNetAcuYP5N-v9lAM-22">
          <mxGeometry relative="1" as="geometry">
            <Array as="points">
              <mxPoint x="540" y="400" />
            </Array>
          </mxGeometry>
        </mxCell>
        <mxCell id="DbRBNetAcuYP5N-v9lAM-6" value="Face Image Capture" style="rounded=0;whiteSpace=wrap;html=1;fillColor=#e1d5e7;strokeColor=#9673a6;" vertex="1" parent="1">
          <mxGeometry x="470" y="270" width="120" height="60" as="geometry" />
        </mxCell>
        <mxCell id="DbRBNetAcuYP5N-v9lAM-17" value="" style="edgeStyle=orthogonalEdgeStyle;rounded=0;orthogonalLoop=1;jettySize=auto;html=1;fillColor=#e1d5e7;strokeColor=#9673a6;" edge="1" parent="1" source="DbRBNetAcuYP5N-v9lAM-7" target="DbRBNetAcuYP5N-v9lAM-8">
          <mxGeometry relative="1" as="geometry" />
        </mxCell>
        <mxCell id="DbRBNetAcuYP5N-v9lAM-7" value="Generate Face Data" style="rounded=0;whiteSpace=wrap;html=1;fillColor=#e1d5e7;strokeColor=#9673a6;" vertex="1" parent="1">
          <mxGeometry x="220" y="270" width="120" height="60" as="geometry" />
        </mxCell>
        <mxCell id="DbRBNetAcuYP5N-v9lAM-18" value="" style="edgeStyle=orthogonalEdgeStyle;rounded=0;orthogonalLoop=1;jettySize=auto;html=1;fillColor=#e1d5e7;strokeColor=#9673a6;" edge="1" parent="1" source="DbRBNetAcuYP5N-v9lAM-8" target="DbRBNetAcuYP5N-v9lAM-9">
          <mxGeometry relative="1" as="geometry" />
        </mxCell>
        <mxCell id="DbRBNetAcuYP5N-v9lAM-8" value="Store In FLash Memory" style="rounded=0;whiteSpace=wrap;html=1;fillColor=#e1d5e7;strokeColor=#9673a6;" vertex="1" parent="1">
          <mxGeometry x="50" y="270" width="120" height="60" as="geometry" />
        </mxCell>
        <mxCell id="DbRBNetAcuYP5N-v9lAM-19" value="" style="edgeStyle=orthogonalEdgeStyle;rounded=0;orthogonalLoop=1;jettySize=auto;html=1;fillColor=#e1d5e7;strokeColor=#9673a6;" edge="1" parent="1" source="DbRBNetAcuYP5N-v9lAM-9" target="DbRBNetAcuYP5N-v9lAM-10">
          <mxGeometry relative="1" as="geometry" />
        </mxCell>
        <mxCell id="DbRBNetAcuYP5N-v9lAM-9" value="Data Sent to server" style="ellipse;whiteSpace=wrap;html=1;fillColor=#ffe6cc;strokeColor=#d79b00;" vertex="1" parent="1">
          <mxGeometry x="50" y="360" width="120" height="80" as="geometry" />
        </mxCell>
        <mxCell id="DbRBNetAcuYP5N-v9lAM-10" value="Success Voice message to User" style="rounded=1;whiteSpace=wrap;html=1;fillColor=#e1d5e7;strokeColor=#9673a6;" vertex="1" parent="1">
          <mxGeometry x="220" y="370" width="120" height="60" as="geometry" />
        </mxCell>
        <mxCell id="DbRBNetAcuYP5N-v9lAM-21" value="&lt;font color=&quot;#00994d&quot;&gt;&lt;b&gt;Success&lt;/b&gt;&lt;/font&gt;" style="text;html=1;align=center;verticalAlign=middle;resizable=0;points=[];autosize=1;strokeColor=#9673a6;fillColor=#e1d5e7;" vertex="1" parent="1">
          <mxGeometry x="380" y="270" width="70" height="30" as="geometry" />
        </mxCell>
        <mxCell id="DbRBNetAcuYP5N-v9lAM-22" value="TRY AGAIN!!!" style="rounded=1;whiteSpace=wrap;html=1;fillColor=#e1d5e7;strokeColor=#9673a6;" vertex="1" parent="1">
          <mxGeometry x="630" y="370" width="120" height="60" as="geometry" />
        </mxCell>
        <mxCell id="DbRBNetAcuYP5N-v9lAM-24" value="&lt;font color=&quot;#00994d&quot;&gt;&lt;b&gt;Failed&lt;/b&gt;&lt;/font&gt;" style="text;html=1;align=center;verticalAlign=middle;resizable=0;points=[];autosize=1;strokeColor=#9673a6;fillColor=#e1d5e7;" vertex="1" parent="1">
          <mxGeometry x="475" y="350" width="60" height="30" as="geometry" />
        </mxCell>
      </root>
    </mxGraphModel>
  </diagram>
</mxfile>
